<svg xmlns="http://www.w3.org/2000/svg" fill-rule="evenodd" stroke-linejoin="round" stroke-miterlimit="2" clip-rule="evenodd" viewBox="0 0 1000 1000"><defs/><g><path fill="#1e1e14" fill-rule="nonzero" d="M104 280l-21-49-83 36 50 115h-1l36 83 192-83-35-83-60 26c17-32 32-53 42-60 8-5 15-8 34-11 18-2 47-2 87-2v-86h-54l-43 2c-27 4-53 11-75 27-43 23-58 55-69 85z"/></g><path fill="#b92c28" d="M974 762c23-8 25-20 26-49V288c0-25-15-47-38-55l-213-80-284-13c-21 0-43 30-43 51l1 52c0 21 16 25 37 25l30 1-11 450-34 10c-9 0-23 13-22 23l-1 56c0 22 17 39 38 39l320 1 194-86z"/><g><path fill="#1e1e14" d="M595 746c0-33 25-57 58-57s58 24 58 57-25 58-58 58-58-25-58-58z"/></g><path fill="#1e1e14" d="M793 234l150 54-3 422-140 56-7-532z"/><g><path fill="#1e1e14" d="M595 258c0-33 25-58 58-58s58 25 58 58-25 57-58 57-58-24-58-57z"/></g><path fill="#1e1e14" d="M480 718l-35 11c-9 0-23 13-22 23l-1 56c0 22 17 39 38 39h18l2-129z"/><path fill="#1e1e14" d="M493 142l-28-2c-21 0-43 30-43 51l1 52c0 21 16 25 37 25l30 1 3-127z"/></svg>